<svg width="176" height="72" viewBox="0 0 176 72" fill="none" xmlns="http://www.w3.org/2000/svg">
<path d="M11.584 30.312C13.0347 28.904 14.656 27.944 16.448 27.432C18.2827 26.92 20.0533 26.8987 21.76 27.368C23.5093 27.8373 25.1093 28.6693 26.56 29.864C28.0107 31.0587 29.184 32.744 30.08 34.92C30.976 37.096 31.424 39.5493 31.424 42.28C31.424 45.0107 30.9333 47.4427 29.952 49.576C29.0133 51.7093 27.776 53.3307 26.24 54.44C24.704 55.5493 23.04 56.36 21.248 56.872C19.456 57.384 17.6853 57.4907 15.936 57.192C14.1867 56.936 12.672 56.36 11.392 55.464C11.008 56.3173 10.3893 56.744 9.536 56.744H2.624C2.32533 56.744 2.13333 56.6373 2.048 56.424C2.00533 56.168 2.09067 55.9547 2.304 55.784C2.85867 55.4 3.136 54.632 3.136 53.48V21.928C3.136 21.8 3.136 21.6933 3.136 21.608C3.136 21.5227 3.09333 21.4587 3.008 21.416C2.96533 21.3307 2.88 21.288 2.752 21.288C2.368 21.3307 2.13333 21.16 2.048 20.776C1.96267 20.392 2.112 20.1147 2.496 19.944C5.568 18.4507 8.17067 17.2987 10.304 16.488C10.7733 16.3173 11.0933 16.296 11.264 16.424C11.4773 16.552 11.584 16.7653 11.584 17.064V30.312ZM15.744 55.72C18.1333 55.72 19.9253 54.5253 21.12 52.136C22.3573 49.704 22.976 46.568 22.976 42.728C22.976 38.248 22.3787 34.8987 21.184 32.68C20.032 30.4187 18.56 29.288 16.768 29.288C14.848 29.288 13.12 30.2053 11.584 32.04V54.184C12.736 55.208 14.1227 55.72 15.744 55.72ZM54.0515 28.008C57.8488 29.5867 60.6222 32.3387 62.3715 36.264C64.1635 40.1467 64.3982 44.0507 63.0755 47.976C61.7955 51.8587 59.3422 54.632 55.7155 56.296C52.1315 57.9173 48.4408 57.9387 44.6435 56.36C40.8462 54.7387 38.0515 51.9867 36.2595 48.104C34.5102 44.1787 34.2755 40.2747 35.5555 36.392C36.8782 32.4667 39.3315 29.6933 42.9155 28.072C46.5422 26.408 50.2542 26.3867 54.0515 28.008ZM50.2115 53.032C52.3022 55.208 54.0088 55.9973 55.3315 55.4C56.6542 54.8027 57.1875 53.0107 56.9315 50.024C56.6755 46.9947 55.7155 43.6667 54.0515 40.04C52.4302 36.3707 50.5528 33.448 48.4195 31.272C46.3288 29.096 44.6222 28.3067 43.2995 28.904C42.0195 29.5013 41.4862 31.3147 41.6995 34.344C41.9555 37.3307 42.9155 40.6587 44.5795 44.328C46.2435 47.9547 48.1208 50.856 50.2115 53.032ZM86.364 28.008C90.1613 29.5867 92.9347 32.3387 94.684 36.264C96.476 40.1467 96.7107 44.0507 95.388 47.976C94.108 51.8587 91.6547 54.632 88.028 56.296C84.444 57.9173 80.7533 57.9387 76.956 56.36C73.1587 54.7387 70.364 51.9867 68.572 48.104C66.8227 44.1787 66.588 40.2747 67.868 36.392C69.1907 32.4667 71.644 29.6933 75.228 28.072C78.8547 26.408 82.5667 26.3867 86.364 28.008ZM82.524 53.032C84.6147 55.208 86.3213 55.9973 87.644 55.4C88.9667 54.8027 89.5 53.0107 89.244 50.024C88.988 46.9947 88.028 43.6667 86.364 40.04C84.7427 36.3707 82.8653 33.448 80.732 31.272C78.6413 29.096 76.9347 28.3067 75.612 28.904C74.332 29.5013 73.7987 31.3147 74.012 34.344C74.268 37.3307 75.228 40.6587 76.892 44.328C78.556 47.9547 80.4333 50.856 82.524 53.032ZM128.405 56.04C128.533 56.1253 128.575 56.2747 128.533 56.488C128.49 56.6587 128.362 56.744 128.149 56.744H118.037C117.61 56.744 117.055 56.4667 116.373 55.912C114.538 54.5467 113.173 52.0933 112.277 48.552C111.381 45.0107 111.445 41.4693 112.469 37.928C111.957 38.696 111.359 39.7627 110.677 41.128C109.994 42.4507 109.546 43.4533 109.333 44.136V53.48C109.333 54.632 109.61 55.4213 110.165 55.848C110.378 55.976 110.442 56.168 110.357 56.424C110.314 56.6373 110.165 56.744 109.909 56.744H100.373C100.117 56.744 99.9458 56.6373 99.8605 56.424C99.7752 56.168 99.8392 55.976 100.053 55.848C100.607 55.4213 100.885 54.6747 100.885 53.608V21.928C100.885 21.8 100.885 21.7147 100.885 21.672C100.885 21.5867 100.842 21.5013 100.757 21.416C100.714 21.3307 100.629 21.288 100.501 21.288C100.117 21.3307 99.8818 21.16 99.7965 20.776C99.7112 20.392 99.8605 20.1147 100.245 19.944C103.317 18.4507 105.919 17.2987 108.053 16.488C108.522 16.36 108.842 16.36 109.013 16.488C109.226 16.616 109.333 16.808 109.333 17.064V39.72C109.631 39.2507 110.207 38.44 111.061 37.288C111.957 36.0933 113.087 34.728 114.453 33.192C115.818 31.656 117.333 30.3333 118.997 29.224C120.661 28.072 122.154 27.496 123.477 27.496C126.207 27.496 127.21 29.0747 126.485 32.232C126.143 33.384 125.973 33.96 125.973 33.96C124.479 32.8933 122.517 32.6373 120.085 33.192C117.653 33.7467 115.989 34.856 115.093 36.52C114.453 37.8427 114.495 39.528 115.221 41.576C115.989 43.5813 117.141 45.544 118.677 47.464C120.255 49.384 121.919 51.1333 123.669 52.712C125.461 54.2907 127.039 55.4 128.405 56.04ZM150.579 42.728C151.901 43.5813 152.989 44.712 153.843 46.12C154.739 47.4853 154.973 49.0853 154.547 50.92C154.163 52.6267 152.904 54.12 150.771 55.4C148.68 56.6373 145.992 57.256 142.707 57.256C141.256 57.256 139.805 57.0427 138.355 56.616C136.904 56.1467 135.624 55.5493 134.515 54.824C133.405 54.0987 132.509 53.48 131.827 52.968C131.187 52.456 130.632 51.944 130.163 51.432C129.907 51.176 129.885 50.8987 130.099 50.6L134.003 45.544C134.045 45.4587 134.131 45.416 134.259 45.416C134.387 45.416 134.472 45.48 134.515 45.608C134.856 46.4613 135.283 47.3573 135.795 48.296C136.307 49.192 137.011 50.3227 137.907 51.688C138.803 53.0533 139.827 54.184 140.979 55.08C142.173 55.9333 143.368 56.36 144.562 56.36C145.971 56.36 146.931 55.9333 147.443 55.08C147.997 54.184 148.019 53.1387 147.507 51.944C147.037 50.7067 146.141 49.64 144.819 48.744C143.795 48.0187 142.109 46.8667 139.763 45.288C137.459 43.6667 135.901 42.6 135.091 42.088C133.725 41.1493 132.595 39.8053 131.699 38.056C130.803 36.3067 130.76 34.4293 131.571 32.424C132.339 30.632 133.619 29.2667 135.411 28.328C137.203 27.3467 138.995 26.856 140.787 26.856C142.749 26.856 144.563 27.0267 146.227 27.368C147.891 27.7093 149.192 28.136 150.131 28.648C151.069 29.1173 151.859 29.608 152.499 30.12C153.181 30.5893 153.629 30.9947 153.843 31.336L154.227 31.848C152.989 33.4693 151.944 34.5787 151.091 35.176C150.28 35.688 149.384 35.8587 148.403 35.688C147.421 35.5173 146.675 35.0267 146.163 34.216C144.584 31.6987 143.155 29.928 141.875 28.904C140.637 27.88 139.4 27.752 138.163 28.52C137.523 28.904 137.139 29.5227 137.01 30.376C136.883 31.1867 137.096 32.1253 137.651 33.192C138.205 34.216 139.101 35.1333 140.339 35.944C141.192 36.5413 142.92 37.6933 145.523 39.4C148.168 41.1067 149.853 42.216 150.579 42.728Z" fill="#3D3D3D"/>
<path d="M166.024 45.288C167.624 45.288 169 45.832 170.152 46.92C171.368 48.008 171.976 49.384 171.976 51.048C171.976 52.52 171.368 53.896 170.152 55.176C169 56.392 167.624 57 166.024 57C164.232 57 162.792 56.392 161.704 55.176C160.616 53.896 160.072 52.52 160.072 51.048C160.072 49.384 160.648 48.008 161.8 46.92C162.952 45.832 164.36 45.288 166.024 45.288Z" fill="#EA830B"/>
</svg>
